<svg xmlns="http://www.w3.org/2000/svg" viewBox="0 0 48 48" width="64" height="64">
  <path fill="#fff" d="M24 4C12.954 4 4 12.954 4 24c0 3.539.922 6.859 2.535 9.746L4 44l10.581-2.416C17.239 43.118 20.522 44 24 44c11.046 0 20-8.954 20-20S35.046 4 24 4zm0 36c-3.178 0-6.153-.837-8.728-2.3l-.608-.364-6.34 1.449 1.51-6.088-.399-.639C7.833 29.432 7 26.788 7 24c0-9.374 7.626-17 17-17s17 7.626 17 17-7.626 17-17 17zm9.146-12.736c-.502-.251-2.97-1.465-3.43-1.633-.46-.167-.794-.251-1.129.251-.335.502-1.297 1.633-1.59 1.969-.293.335-.586.377-1.088.126-.502-.251-2.119-.781-4.036-2.491-1.492-1.33-2.499-2.974-2.792-3.477-.293-.502-.031-.774.22-1.024.226-.225.502-.586.753-.879.251-.293.335-.502.502-.837.167-.335.084-.627-.042-.879-.126-.251-1.129-2.722-1.548-3.727-.407-.978-.821-.846-1.129-.862-.293-.014-.627-.017-.96-.017-.335 0-.879.126-1.338.627-.46.502-1.757 1.717-1.757 4.189s1.799 4.859 2.05 5.194c.251.335 3.542 5.411 8.582 7.588 1.199.518 2.135.827 2.864 1.059 1.203.382 2.299.328 3.166.199.966-.144 2.97-1.214 3.388-2.387.418-1.172.418-2.177.293-2.387-.126-.209-.46-.335-.96-.586z"/>
</svg>
